<svg xmlns="http://www.w3.org/2000/svg" viewBox="0 0 100 100" width="100px" height="100px"><defs><linearGradient id="javaGradient" x1="0%" y1="0%" x2="100%" y2="100%"><stop offset="0%" style="stop-color:#f89820;stop-opacity:1" /><stop offset="100%" style="stop-color:#e74c3c;stop-opacity:1" /></linearGradient></defs><path fill="url(#javaGradient)" d="M35,75c0,5-3,8-8,8s-8-3-8-8c0-5,3-8,8-8S35,70,35,75z M65,75c0,5-3,8-8,8s-8-3-8-8c0-5,3-8,8-8S65,70,65,75z M50,20c8,0,15,4,20,10l-15,8c-2-2-5-3-8-3c-3,0-6,1-8,3l-15-8C35,24,42,20,50,20z M50,45c6,0,11-5,11-11c0-6-5-11-11-11s-11,5-11,11C39,40,44,45,50,45z"/></svg>